<svg width="200" height="200" viewBox="0 0 200 200" fill="none" xmlns="http://www.w3.org/2000/svg">
<path d="M132.019 42H67.0067C42.24 42 22 62.178 22 86.8688C22 111.56 42.24 131.738 67.0067 131.738H104.573L129.704 156.792C134.439 161.512 142.556 158.166 142.556 151.475V130.467C162.249 125.695 177 107.929 177 86.8688C177.026 62.178 156.76 42 132.019 42ZM60.3988 98.4102C53.999 98.4102 48.8219 93.249 48.8219 86.8688C48.8219 80.4886 53.999 75.3274 60.3988 75.3274C66.7986 75.3274 71.9757 80.4886 71.9757 86.8688C71.9757 93.249 66.7986 98.4102 60.3988 98.4102ZM99.526 98.4102C93.1262 98.4102 87.9491 93.249 87.9491 86.8688C87.9491 80.4886 93.1262 75.3274 99.526 75.3274C105.926 75.3274 111.103 80.4886 111.103 86.8688C111.103 93.249 105.926 98.4102 99.526 98.4102ZM138.653 98.4102C132.253 98.4102 127.076 93.249 127.076 86.8688C127.076 80.4886 132.253 75.3274 138.653 75.3274C145.053 75.3274 150.23 80.4886 150.23 86.8688C150.23 93.249 145.053 98.4102 138.653 98.4102Z" fill="white"/>
</svg>
