<svg width="200" height="200" viewBox="0 0 200 200" fill="none" xmlns="http://www.w3.org/2000/svg">
<path d="M138.945 96.0803H138.176C133.051 96.0803 127.9 96.0803 122.776 96.0803C122.245 96.0803 122.033 95.9742 122.059 95.3902C122.086 91.5412 122.059 87.6657 122.112 83.8168C122.112 82.8081 122.378 81.7463 122.723 80.7907C123.493 78.6141 125.298 77.6054 127.449 77.2603C128.564 77.0745 129.706 77.0214 130.821 77.0214C133.503 76.9948 136.158 77.0214 138.839 77.0214C139.37 77.0214 139.583 76.9152 139.583 76.3312C139.583 71.6328 139.583 66.9079 139.583 62.2095C139.583 61.6786 139.37 61.5459 138.919 61.4928C134.299 61.0681 129.679 60.8292 125.059 60.9354C120.944 61.0416 117.041 62.0237 113.536 64.2535C109.341 66.9079 106.739 70.7303 105.359 75.4287C104.536 78.1893 104.27 81.0031 104.27 83.8699C104.27 87.7188 104.27 91.5412 104.27 95.3902C104.27 95.9476 104.137 96.1069 103.553 96.1069C99.0928 96.1069 94.6588 96.1069 90.1983 96.1069C89.6407 96.1069 89.5345 96.2662 89.5345 96.797C89.5345 102.079 89.5345 107.362 89.5345 112.644C89.5345 113.228 89.7204 113.334 90.2514 113.334C94.7119 113.334 99.1459 113.334 103.606 113.334C104.111 113.334 104.27 113.467 104.27 113.971C104.27 128.093 104.27 142.215 104.27 156.336C104.27 156.841 104.111 157 103.606 157C85.844 157 68.0815 156.973 50.3191 157C47.2392 157 44.531 154.85 44.0531 151.797C44 151.399 44 150.974 44 150.576C44 117.183 44 83.8168 44 50.4238C44 47.1057 46.3365 44.5043 49.1774 44.0796C49.6022 44.0265 50.027 44 50.4518 44C83.8261 44 117.2 44 150.575 44C153.92 44 156.522 46.3359 156.947 49.2027C157 49.6009 157 50.0256 157 50.4238C157 83.8168 157 117.183 157 150.576C157 153.894 154.664 156.496 151.823 156.92C151.398 156.973 150.973 157 150.548 157C141.309 157 132.042 157 122.803 157C122.245 157 122.086 156.867 122.086 156.283C122.086 142.188 122.086 128.12 122.086 114.024C122.086 113.467 122.245 113.308 122.803 113.308C127.263 113.308 131.697 113.308 136.158 113.308C136.609 113.308 136.795 113.202 136.848 112.724C137.06 110.813 137.326 108.928 137.591 107.017C137.83 105.159 138.069 103.274 138.308 101.416C138.521 99.6904 138.76 97.9385 138.972 96.1069L138.945 96.0803Z" fill="white"/>
</svg>
