<svg width="200" height="200" viewBox="0 0 200 200" fill="none" xmlns="http://www.w3.org/2000/svg">
<path d="M42.0303 100.515C42.0303 91.5988 41.6914 82.6831 42.1085 73.7934C42.7081 61.9057 48.5476 52.8857 58.6626 46.6811C64.085 43.3443 70.0549 41.9365 76.4159 41.9365C92.4486 41.9365 108.507 41.8844 124.54 41.9365C141.094 41.9886 154.468 52.5468 158.144 68.5274C158.743 71.1604 158.952 73.9498 158.978 76.6871C159.056 92.5373 159.03 108.414 159.004 124.264C158.978 139.906 149.88 152.601 135.307 157.398C131.761 158.571 128.112 158.988 124.384 158.988C108.429 158.988 92.4747 159.014 76.5462 158.988C60.4353 158.962 47.1659 148.952 43.1513 133.701C42.3431 130.651 42.0563 127.392 42.0042 124.238C41.8478 116.339 41.9521 108.414 41.9521 100.515C41.9781 100.515 42.0303 100.515 42.0563 100.515H42.0303ZM147.221 100.41C147.221 92.1463 147.247 83.8823 147.221 75.5922C147.221 73.6891 147.09 71.7339 146.647 69.883C144.301 59.9766 136.037 53.6938 125.505 53.6678C108.82 53.6678 92.1619 53.6678 75.4774 53.6678C74.1218 53.6678 72.714 53.6678 71.3845 53.9545C60.6178 55.9879 53.7355 64.278 53.7094 75.2794C53.6833 92.042 53.6833 108.805 53.7094 125.593C53.7094 127.392 53.8658 129.269 54.2829 131.016C56.6031 140.766 64.7368 147.179 75.0081 147.205C91.9533 147.283 108.898 147.231 125.87 147.205C127.59 147.205 129.363 147.023 131.031 146.631C140.834 144.285 147.194 136.099 147.247 125.776C147.299 117.329 147.247 108.883 147.247 100.41H147.221Z" fill="white"/>
<path d="M100.425 129.764C84.3145 129.764 71.1494 116.547 71.1494 100.436C71.1494 84.3254 84.3666 71.1603 100.478 71.1603C116.588 71.1603 129.754 84.3775 129.754 100.488C129.754 116.599 116.536 129.791 100.425 129.764ZM100.425 82.9176C90.8319 82.9176 82.9067 90.8688 82.9067 100.462C82.9067 110.056 90.8319 118.007 100.425 118.007C110.071 118.007 118.048 110.03 118.022 100.384C117.97 90.7906 110.019 82.8915 100.425 82.8915V82.9176Z" fill="white"/>
<path d="M138.54 69.7527C138.54 73.7153 135.203 77.1043 131.214 77.1304C127.2 77.1565 123.785 73.7153 123.811 69.7006C123.863 65.712 127.226 62.3751 131.188 62.4012C135.177 62.4012 138.514 65.7641 138.514 69.7527H138.54Z" fill="white"/>
</svg>
