<svg width="200" height="200" viewBox="0 0 200 200" fill="none" xmlns="http://www.w3.org/2000/svg">
<path d="M66.1109 50.1917C70.3098 49.3275 72.7797 51.9201 74.3852 56.1794C76.5464 61.8584 78.9546 67.5374 81.4863 73.0312C82.9682 76.2411 82.536 79.0806 80.56 81.7966C79.325 83.4633 78.0283 85.0682 76.6081 86.6115C74.0558 89.5333 73.85 92.6403 75.9906 95.9324C84.5119 109.204 95.9972 118.957 110.755 124.76C113.472 125.809 115.263 125.377 116.93 123.34C119.4 120.377 121.932 117.352 124.278 114.266C126.131 111.797 128.045 110.994 130.947 112.414C137.863 115.747 144.779 119.019 151.695 122.29C153.176 122.969 154.411 123.895 154.35 125.747C154.226 131.982 153.362 138.031 148.113 142.29C139.962 148.957 130.885 151.365 120.45 148.71C87.4759 140.377 64.8141 119.513 49.7474 89.8831C43.2638 77.167 45.425 64.1423 54.4403 54.451C58.207 50.3769 59.8125 49.7596 66.1109 50.0682V50.1917Z" fill="white"/>
</svg>
