<svg width="200" height="200" viewBox="0 0 200 200" fill="none" xmlns="http://www.w3.org/2000/svg">
<path d="M31 166.57C31 163.792 31 161.199 31 158.607C31 134.471 31 110.274 31 86.076C31 85.397 31.1852 84.9032 31.741 84.4711C42.794 76.2612 53.847 67.9896 64.9618 59.718C72.7421 53.9155 80.5224 48.113 88.3645 42.2488C91.8842 39.6562 95.4039 37.0019 98.8618 34.3476C99.4793 33.8538 99.8498 33.9155 100.467 34.3476C107.507 39.5945 114.484 44.8414 121.524 50.0883C128.933 55.5822 136.343 61.1377 143.753 66.6316C151.78 72.6192 159.808 78.6069 167.773 84.5945C168.082 84.8414 168.329 85.397 168.329 85.8291C168.329 94.1007 168.329 102.372 168.329 110.644C168.329 124.718 168.329 138.73 168.329 152.804C168.329 157.064 168.329 161.261 168.329 165.52C168.329 166.385 168.082 166.57 167.279 166.508C152.46 166.508 137.64 166.508 122.82 166.508C102.505 166.508 82.2514 166.508 61.9361 166.508C52.1181 166.508 42.3 166.508 32.482 166.508C32.0497 166.508 31.6175 166.508 31.1235 166.508L31 166.57ZM159.314 162.372C158.943 162.064 158.82 161.878 158.635 161.755C149.99 155.088 141.345 148.36 132.7 141.693C122.018 133.422 111.335 125.212 100.714 116.94C99.6645 116.076 99.6645 116.076 98.4913 116.94C89.5378 123.916 80.5225 130.829 71.5689 137.804C61.2569 145.767 50.8831 153.792 40.571 161.755C40.3858 161.878 40.2006 162.064 39.9536 162.372H159.376H159.314ZM35.9399 86.755V159.656C52.859 146.57 69.5929 133.607 86.4503 120.582C69.5312 109.286 52.7973 98.0513 35.9399 86.755ZM163.327 159.656V86.755C146.47 98.0513 129.674 109.286 112.879 120.582C129.736 133.607 146.532 146.632 163.327 159.656ZM101.208 90.7674C101.641 92.2488 102.628 93.0513 104.11 93.1748C107.568 93.5451 110.779 92.8044 113.558 90.6439C118.189 87.0019 120.659 82.2488 120.412 76.2612C120.165 69.1624 116.831 63.9155 110.224 61.0143C105.839 59.1007 101.27 58.8538 96.5771 59.5945C90.2787 60.5822 85.0301 63.4217 81.5104 68.9772C78.1143 74.4093 76.941 80.3353 78.1143 86.6316C79.3492 93.36 82.9924 98.36 89.476 100.953C95.4039 103.298 101.517 103.607 107.754 102.496C111.829 101.755 115.472 100.15 118.498 97.2488C119.733 96.0143 120.783 94.6562 121.647 92.8661C120.227 92.8661 118.93 92.8661 117.633 92.8661C117.201 92.8661 116.707 93.113 116.398 93.4217C114.855 95.0883 113.126 96.3229 111.026 97.1254C105.654 99.2241 100.159 99.2859 94.6629 98.1748C90.0935 97.2488 86.3886 95.0266 83.9804 90.8908C81.6339 86.8167 81.3252 82.434 82.3132 77.9896C83.2394 73.6069 85.1536 69.6562 88.9203 67.0019C94.1689 63.2365 100.097 62.6192 106.272 64.039C114.855 66.076 118.807 74.5945 115.04 82.5575C113.805 85.1501 112.014 87.2488 109.359 88.4217C108.001 89.039 107.26 88.4217 107.507 86.9402C108.248 83.2982 108.989 79.6562 109.791 75.9525C110.285 73.7303 110.718 71.5081 111.212 69.1624C109.297 69.1624 107.445 69.1624 105.654 69.1624C105.469 69.1624 105.16 69.4711 105.098 69.718C104.913 70.2735 104.851 70.8291 104.666 71.5698C104.357 71.1995 104.172 70.9525 103.987 70.7056C102.999 69.5328 101.764 68.7921 100.282 68.6069C97.0711 68.1748 94.1072 68.8538 91.699 71.1377C87.8088 74.7797 86.0181 79.3476 86.3886 84.5945C87.0061 92.9279 95.3421 95.0883 100.22 91.4464C100.591 91.1995 100.9 90.9525 101.332 90.5822L101.208 90.7674Z" fill="white"/>
<path d="M103.308 78.2365C103.308 77.8661 103.308 77.434 103.308 77.0636C103.123 74.0389 100.714 72.2488 97.8122 72.9895C96.5155 73.2982 95.4658 74.1007 94.7248 75.2118C92.6254 78.1747 92.0079 81.5081 92.2549 85.0266C92.3784 86.8784 93.1811 88.4216 94.9718 89.1007C96.886 89.7797 98.615 89.1624 99.9735 87.7426C102.505 85.0883 103.123 81.755 103.37 78.2982L103.308 78.2365Z" fill="white"/>
<path d="M103.308 78.2365C103.061 81.6933 102.443 85.0267 99.9115 87.681C98.5531 89.1007 96.8241 89.718 94.9099 89.039C93.0574 88.36 92.3164 86.8785 92.193 84.9649C91.946 81.4464 92.6252 78.1131 94.6629 75.1501C95.4039 74.1007 96.4536 73.2983 97.7503 72.9279C100.653 72.1872 103.061 73.9773 103.246 77.002C103.246 77.3723 103.246 77.8044 103.246 78.1748L103.308 78.2365Z" fill="white"/>
</svg>
