<svg width="200" height="200" viewBox="0 0 200 200" fill="none" xmlns="http://www.w3.org/2000/svg">
<path d="M163.098 75.4855C150.255 40.2386 110.056 22.646 75.1065 37.0287C38.4277 52.1522 23.2376 95.2386 42.5031 130.053C43.2441 131.411 43.4911 132.584 42.9354 134.066C39.4775 144.066 36.143 154.066 32.7468 164.066C32.4381 164.93 31.6353 166.103 32.1911 166.72C32.9321 167.584 34.1053 166.72 35.0315 166.35C45.467 163.078 55.9026 159.745 66.3381 156.411C67.6966 155.979 68.8698 155.979 70.2283 156.658C79.7376 161.473 89.8026 164.004 100.979 163.881C107.154 164.004 113.638 162.955 119.998 161.041C156.121 150.362 176.004 110.918 163.098 75.5472V75.4855ZM115.12 151.411C110.303 152.646 105.487 153.387 101.288 153.263C90.1731 153.387 80.6021 150.609 71.7103 145.3C70.2283 144.436 69.055 144.374 67.4496 144.868C61.8304 146.72 56.0879 148.448 50.407 150.239C49.913 150.362 49.3572 150.979 48.8633 150.486C48.3075 149.93 48.8633 149.313 49.0485 148.757C50.8392 143.387 52.5064 138.016 54.4824 132.769C55.0999 131.041 54.8529 129.868 53.9266 128.448C44.1704 113.448 41.7621 97.2756 47.6283 80.4238C54.9146 59.5596 69.9195 47.0287 91.7168 43.325C117.281 39.004 142.166 53.0164 152.169 76.8435C165.013 107.523 147.229 143.202 115.058 151.411H115.12Z" fill="white"/>
<path d="M80.293 67.893C82.8864 67.3374 84.3684 68.9423 85.3563 71.5967C86.6531 75.1152 88.1351 78.5102 89.6788 81.9053C90.605 83.8806 90.2962 85.609 89.123 87.2757C88.382 88.3251 87.5793 89.251 86.7148 90.2386C85.1505 92.0082 85.027 93.9218 86.3444 95.9794C91.593 104.128 98.5706 110.053 107.648 113.634C109.315 114.313 110.365 114.004 111.414 112.769C112.958 110.918 114.502 109.128 115.922 107.214C117.033 105.732 118.207 105.239 119.997 106.103C124.196 108.14 128.457 110.115 132.718 112.152C133.644 112.584 134.385 113.14 134.385 114.251C134.323 118.078 133.767 121.782 130.556 124.374C125.555 128.449 119.997 129.93 113.637 128.325C93.4454 123.202 79.6137 110.486 70.4132 92.3374C66.4613 84.5596 67.758 76.5967 73.2536 70.6707C75.5383 68.2016 76.5263 67.7695 80.4165 67.9547L80.293 67.893Z" fill="white"/>
</svg>
