<?xml version="1.0" encoding="UTF-8"?>
<svg id="b" data-name="Layer 2" xmlns="http://www.w3.org/2000/svg" xmlns:xlink="http://www.w3.org/1999/xlink" viewBox="0 0 332.55 211.59">
  <defs>
    <clipPath id="d">
      <rect x="0" width="332.55" height="211.59" style="fill: none;"/>
    </clipPath>
    <clipPath id="e">
      <path d="m2473.89-74.93c-291.3-21.04-616.69-32.8-960-32.8s-668.7,11.76-960,32.8V445.88h1920V-74.93Z" style="fill: none;"/>
    </clipPath>
  </defs>
  <g id="c" data-name="Layer 11">
    <g style="clip-path: url(#d); fill: none;">
      <g>
        <g style="clip-path: url(#e); fill: none;">
          <ellipse cx="1513.89" cy="214.67" rx="2256.18" ry="336.09" style="fill: #0683be;"/>
        </g>
        <g id="f" data-name="logo">
          <path d="m332.36,100.71c-.28-3.77-.86-7.5-1.75-11.17-2.66-10.96-7.72-20.75-14.5-29.7-6.15-8.12-13.42-15.12-21.47-21.33-9.72-7.5-20.27-13.61-31.42-18.71-15.76-7.2-32.21-12.16-49.21-15.4-4.09-.78-8.21-1.44-12.34-2.02-3.64-.51-7.29-.94-10.95-1.28-3.17-.29-6.35-.51-9.53-.71C176.2.09,171.21.05,166.22,0c-.43,0-.85,0-1.28,0-7.36.02-14.71.35-22.04,1.02-5,.46-9.99,1.05-14.96,1.78-7.02,1.04-13.97,2.39-20.86,4.07-13.66,3.32-26.91,7.81-39.63,13.81-13.56,6.4-26.17,14.26-37.33,24.35-7.52,6.81-14.12,14.4-19.32,23.14C3.23,80.89-.69,94.58.1,109.48c.2,3.78.71,7.51,1.53,11.2,2.04,9.21,5.82,17.68,10.96,25.56,5.82,8.94,13.03,16.64,21.18,23.47,8.32,6.97,17.38,12.82,26.99,17.84,13.48,7.04,27.64,12.27,42.33,16.12,13.75,3.61,27.73,5.87,41.88,7.06,5.01.42,10.03.68,15.05.78,6.6.14,13.2.06,19.8-.29,5.28-.28,10.55-.7,15.8-1.28,5.41-.6,10.81-1.39,16.17-2.37,8.82-1.61,17.53-3.67,26.11-6.29,14.91-4.55,29.19-10.56,42.58-18.61,11.47-6.9,21.92-15.06,30.82-25.11,5.85-6.6,10.79-13.81,14.5-21.84,5.14-11.12,7.47-22.77,6.56-35.03m-12.18,29.89c-3.44,8.09-8.24,15.3-14.02,21.89-8.42,9.59-18.36,17.35-29.25,23.92-12.95,7.81-26.78,13.62-41.22,18.01-8.83,2.69-17.8,4.79-26.9,6.35-5.18.89-10.37,1.62-15.6,2.17-5.52.58-11.05.98-16.6,1.21-3.42.14-6.83.13-10.25.19-4.37.03-8.74-.06-13.1-.29-4.59-.24-9.17-.61-13.74-1.09-5.42-.57-10.81-1.31-16.18-2.26-7.53-1.32-14.99-3-22.35-5.09-12.71-3.59-24.98-8.27-36.7-14.38-9.59-5-18.61-10.85-26.83-17.89-8.42-7.21-15.71-15.39-21.24-25.06-3.98-6.96-6.77-14.35-8.12-22.27-.74-4.38-1.02-8.81-.79-13.25.56-10.63,3.73-20.48,9.02-29.67,3.66-6.36,8.12-12.1,13.19-17.38,7.44-7.75,15.88-14.24,25.02-19.85,12.86-7.9,26.61-13.8,41-18.28,7.21-2.25,14.52-4.1,21.92-5.6,5.37-1.09,10.78-1.98,16.22-2.67,4.53-.58,9.06-1.05,13.62-1.38,4.06-.3,8.13-.49,12.2-.61,3.32-.1,6.64-.14,9.95-.09,5.72.09,11.43.31,17.12.78,18.92,1.54,37.44,5.09,55.44,11.19,12.51,4.24,24.5,9.62,35.78,16.52,9.26,5.66,17.82,12.22,25.35,20.07,6.43,6.71,11.86,14.12,15.87,22.54,2.91,6.12,4.91,12.52,5.8,19.24,1.51,11.43-.1,22.44-4.61,33.04" style="fill: #fff;"/>
          <path d="m173.04,91.92c47.31,0,94.61,0,141.92,0,.32,0,.66.07.97-.09.13-.42-.09-.78-.2-1.15-2.41-7.91-6.32-15.05-11.31-21.61-4.86-6.39-10.56-11.95-16.79-16.99-.5-.4-.89-.36-1.42-.16-6.71,2.59-13.58,4.68-20.54,6.49-13.68,3.55-27.58,5.92-41.59,7.65-5.15.63-10.31,1.17-15.48,1.57-4.91.38-9.82.73-14.74.98-4.72.24-9.45.43-14.18.47-2.4.02-4.79.07-7.19.11-.77.01-.77.02-.79.76,0,.2,0,.39,0,.59,0,6.67,0,13.34,0,20,0,1.56-.21,1.36,1.35,1.36m2.31-17.79c0-.16,0-.33,0-.49.01-.82.01-.83.79-.85,2.1-.05,4.2-.12,6.3-.15,4.24-.06,8.47-.25,12.7-.47,5.15-.27,10.29-.63,15.42-1.08,4.77-.42,9.54-.9,14.3-1.48,4.46-.54,8.91-1.17,13.35-1.88,8.1-1.28,16.15-2.84,24.13-4.76,7.85-1.89,15.6-4.12,23.18-6.93.59-.22,1.01-.19,1.51.23,8.19,6.88,15.28,14.69,20.46,24.13,1.3,2.36,2.43,4.8,3.4,7.32.06.15.16.29.01.6h-1.07c-44.41,0-88.82,0-133.23,0-1.41,0-1.25.11-1.25-1.28,0-4.3,0-8.6,0-12.91" style="fill: #fff;"/>
          <path d="m160.94,120.26c0-1.55.17-1.38-1.35-1.38-23.62,0-47.23,0-70.85,0s-46.32,0-69.47,0c-.62,0-1.25-.01-1.87-.03-.84-.03-.86,0-.64.78.03.09.07.18.1.28,1.66,5.57,4.1,10.79,7.17,15.72,5.63,9.02,12.88,16.56,21.14,23.18.4.32.68.25,1.05.1,3.37-1.3,6.78-2.47,10.23-3.55,12.3-3.85,24.86-6.55,37.57-8.6,6.58-1.06,13.18-1.92,19.8-2.64,5.55-.6,11.1-1.1,16.67-1.47,5.04-.34,10.1-.59,15.15-.78,4.66-.17,9.32-.31,13.99-.27.23,0,.46-.02.69,0,.48.04.65-.19.63-.64-.01-.26,0-.52,0-.79,0-6.63,0-13.27,0-19.9m-3.66,16.71c0,1.09.09,1.04-.99,1.05-.69,0-1.38.01-2.07.02-5.03.03-10.05.23-15.07.48-4.98.25-9.96.59-14.94.97-5.73.45-11.44,1.03-17.14,1.75-13.88,1.74-27.64,4.13-41.19,7.65-6.39,1.66-12.7,3.56-18.89,5.86-.5.19-.86.2-1.32-.19-6.04-5.06-11.51-10.66-16.09-17.1-3.1-4.35-5.7-8.97-7.67-13.95-.12-.3-.33-.58-.26-.94.34-.19.7-.1,1.05-.1,44.44,0,88.89,0,133.33,0,.1,0,.2,0,.3,0,.92,0,.93,0,.93.9,0,1.71,0,3.42,0,5.12,0,2.82,0,5.65,0,8.47" style="fill: #fff;"/>
          <path d="m159.49,91.93c.23,0,.46-.02.69,0,.54.06.66-.21.66-.69-.02-1.71,0-3.42,0-5.12,0-5.32,0-10.64,0-15.96,0-.91,0-.91-.9-.93-2.07-.04-4.14-.1-6.21-.11-3.65-.01-7.29-.19-10.93-.29-1.58-.04-3.15-.12-4.72-.22-3.67-.23-7.34-.46-11.01-.72-2.65-.19-5.3-.39-7.95-.66-3.92-.39-7.83-.8-11.74-1.29-4-.5-8.01-1.04-11.99-1.67-6.22-.98-12.42-2.12-18.57-3.47-10.4-2.28-20.64-5.09-30.59-8.9-.49-.19-.8-.17-1.23.18-5.4,4.33-10.38,9.08-14.79,14.42-4.69,5.68-8.59,11.85-11.4,18.68-.88,2.15-1.68,4.34-2.3,6.66.48.15.88.09,1.27.09,47.24,0,94.47,0,141.71,0m-137.5-5.01c2.85-7,6.88-13.27,11.76-19.02,3.58-4.22,7.55-8.04,11.78-11.6.45-.38.83-.48,1.41-.27,11.23,4.14,22.8,7.09,34.52,9.44,6.63,1.33,13.3,2.43,19.99,3.35,4.68.64,9.37,1.2,14.08,1.67,5.65.57,11.31,1.05,16.98,1.39,3.83.23,7.67.44,11.51.58,4.14.16,8.27.25,12.41.33.81.02.82.02.82.81,0,4.63,0,9.26,0,13.89,0,.81-.01.81-.81.83-.23,0-.46,0-.69,0h-66.42c-22.14,0-44.28,0-66.42,0-1.44,0-1.57.21-.91-1.41" style="fill: #fff;"/>
          <path d="m313.09,118.87c-23.06,0-46.13,0-69.19,0h-70.77c-.26,0-.53,0-.79,0-.68.02-.7.03-.7.74,0,7.06,0,14.13,0,21.19,0,.76.02.78.76.78,5.95,0,11.89.16,17.83.41,3.05.13,6.1.26,9.15.46,5.27.35,10.54.76,15.8,1.29,3.79.38,7.57.79,11.35,1.27,4.72.61,9.43,1.3,14.12,2.08,6.76,1.13,13.49,2.45,20.16,4.05,8.65,2.08,17.2,4.54,25.51,7.75.36.14.65.24,1.06-.09,5.38-4.35,10.39-9.08,14.8-14.41,4.65-5.63,8.54-11.73,11.36-18.48.87-2.09,1.65-4.22,2.26-6.4.19-.69.18-.71-.54-.71-.72,0-1.44.06-2.17.06m-2.49,4.7c-2.53,6.37-6.08,12.14-10.35,17.47-3.93,4.92-8.4,9.31-13.2,13.37-.54.46-.97.54-1.66.29-8.44-3.13-17.1-5.53-25.86-7.56-6.2-1.44-12.45-2.65-18.73-3.69-4.73-.78-9.47-1.47-14.22-2.06-3.81-.48-7.62-.92-11.44-1.29-3.43-.34-6.87-.61-10.3-.86-3.7-.27-7.4-.52-11.11-.72-2.88-.15-5.78-.18-8.66-.33-2.99-.15-5.98-.13-8.96-.19-.86-.02-.87-.02-.87-.86,0-4.6,0-9.2,0-13.79,0-.87,0-.87.85-.88.16,0,.33,0,.49,0,44.38,0,88.75,0,133.13,0,.39,0,.79-.06,1.17.06.06.39-.15.7-.28,1.03" style="fill: #fff;"/>
          <path d="m256.88,159.72c-13.25-3.69-26.74-6.04-40.38-7.64-4.82-.57-9.66-1-14.51-1.36-5.01-.37-10.03-.63-15.05-.78-4.66-.13-9.33-.16-13.99-.22-1.38-.02-1.25-.12-1.26,1.28,0,14.26,0,28.51,0,42.77,0,.2,0,.39,0,.59.02.68.03.69.74.7.2,0,.39,0,.59,0,2.99-.04,5.97-.22,8.96-.39,4.66-.27,9.3-.71,13.92-1.28,5.9-.72,11.75-1.68,17.58-2.88,14.07-2.88,27.72-7.08,40.78-13.09,6.69-3.08,13.13-6.62,19.23-10.76.38-.25.81-.46.98-.93-.28-.25-.64-.34-.97-.47-5.43-2.16-10.98-3.97-16.62-5.54m2.91,11.02c-10.44,5.5-21.4,9.65-32.75,12.85-7.21,2.03-14.51,3.63-21.89,4.87-4.59.77-9.21,1.38-13.85,1.87-4.93.52-9.88.85-14.83,1.1-1.4.07-1.24.15-1.24-1.15,0-11.92,0-23.84,0-35.77,0-1.27-.17-1.26,1.21-1.23,5.19.08,10.38.15,15.56.39,4.95.23,9.9.54,14.84.98,6.44.58,12.86,1.32,19.26,2.27,9.26,1.37,18.42,3.17,27.47,5.56,4.16,1.1,8.27,2.33,12.34,3.74.3.1.6.22,1.07.4-2.47,1.54-4.81,2.86-7.19,4.11" style="fill: #fff;"/>
          <path d="m70.69,49.61c12.04,3.71,24.34,6.18,36.79,7.99,6.33.92,12.7,1.61,19.07,2.15,5.4.46,10.81.77,16.22,1,5.68.23,11.36.28,17.04.27.96,0,.96,0,.97-.97V16.79c0-.2,0-.39,0-.59.02-.36-.12-.56-.51-.54-.23.01-.46,0-.69.01-3.41.16-6.82.27-10.23.51-4.75.33-9.48.8-14.2,1.4-5.5.7-10.97,1.62-16.4,2.74-13.38,2.74-26.38,6.7-38.87,12.27-7.3,3.26-14.31,7.05-20.93,11.54-.35.23-.75.42-1,.94.2.09.34.16.49.21,4.02,1.63,8.11,3.04,12.25,4.32m-1.43-7.7c9.96-5.62,20.48-9.94,31.4-13.31,8.38-2.59,16.9-4.6,25.54-6.09,5.34-.92,10.7-1.65,16.09-2.18,4.64-.46,9.29-.81,13.95-.97.99-.03,1-.02,1,.91,0,12.09,0,24.18,0,36.27,0,.91,0,.91-.92.91-5.98.03-11.95-.18-17.93-.46-4.66-.22-9.31-.55-13.95-.98-11.31-1.05-22.56-2.6-33.68-4.92-8.13-1.69-16.16-3.79-24.03-6.49-.31-.11-.62-.23-.92-.35-.05-.02-.09-.08-.22-.19,1.24-.73,2.44-1.46,3.66-2.15" style="fill: #fff;"/>
          <path d="m160.83,150.97c0-1.41.13-1.26-1.28-1.24-6.73.07-13.47.15-20.19.49-3.77.19-7.54.41-11.31.71-3.76.3-7.52.66-11.27,1.09-3.78.43-7.56.91-11.32,1.48-5.97.9-11.91,1.97-17.81,3.27-8.66,1.91-17.2,4.25-25.53,7.33-1.35.5-2.71.97-4.03,1.6.19.61.72.8,1.14,1.08,6.99,4.72,14.4,8.67,22.13,12.03,13.98,6.08,28.54,10.16,43.53,12.83,6.79,1.2,13.62,2.09,20.5,2.65,4.71.39,9.43.7,14.16.78,1.48.02,1.29.12,1.29-1.23,0-14.29,0-28.58,0-42.87m-3.54,3.45c0,11.95,0,23.91,0,35.86,0,1.33.15,1.23-1.23,1.16-4.29-.22-8.58-.48-12.87-.9-4.28-.42-8.54-.95-12.79-1.59-8.67-1.32-17.22-3.16-25.66-5.56-10.63-3.03-20.93-6.93-30.76-11.99-2.6-1.34-5.15-2.76-7.65-4.27-.19-.12-.42-.19-.58-.53,2.13-.79,4.22-1.45,6.31-2.1,8.32-2.55,16.79-4.51,25.35-6.06,5.42-.98,10.87-1.81,16.34-2.47,5.31-.64,10.63-1.19,15.97-1.58,4.68-.35,9.37-.59,14.06-.79,4.1-.18,8.21-.14,12.31-.28.23,0,.46,0,.69,0,.38-.01.54.17.52.54-.01.2,0,.39,0,.59" style="fill: #fff;"/>
          <path d="m172.54,61.01c.1,0,.2,0,.3,0,7.49,0,14.97-.15,22.45-.57,5.31-.3,10.61-.68,15.9-1.21,4.87-.48,9.72-1.07,14.56-1.77,6.95-1,13.86-2.25,20.71-3.8,8.78-1.99,17.42-4.43,25.82-7.67.75-.29,1.53-.53,2.28-.96-.22-.49-.64-.69-1.01-.94-7.86-5.32-16.25-9.65-25-13.28-9.91-4.11-20.12-7.23-30.57-9.61-6.08-1.38-12.21-2.5-18.39-3.35-4.49-.62-8.99-1.1-13.5-1.47-4.35-.35-8.71-.57-13.08-.72-1.34-.05-1.21-.14-1.21,1.2,0,14.29,0,28.57,0,42.86,0,.16,0,.33,0,.49q.02.77.74.79m2.81-41.23c0-.34.17-.47.49-.45.07,0,.13,0,.2,0,3.25.08,6.49.29,9.73.57,2.26.19,4.51.42,6.76.64,3.23.32,6.45.76,9.66,1.25,6.78,1.05,13.5,2.39,20.15,4.09,12.09,3.08,23.8,7.21,34.96,12.81,3.02,1.52,5.99,3.14,8.88,4.89.25.15.54.25.73.56-1.3.56-2.65.96-3.98,1.39-9.07,2.9-18.32,5.09-27.7,6.79-5.39.98-10.81,1.8-16.24,2.48-4.07.51-8.15.93-12.24,1.28-7.17.61-14.34,1.01-21.53,1.22-2.99.09-5.98.11-8.96.13-.91,0-.92,0-.92-.91,0-12.09,0-24.17,0-36.26,0-.16,0-.33,0-.49" style="fill: #fff;"/>
          <path d="m39.59,116.09c-2.83-4.61-5.57-9.07-8.38-13.63-.18.32-.12.58-.12.82,0,3.58,0,7.16-.01,10.74,0,.67.05,1.25.8,1.5.17.06.27.21.21.39-.06.19-.23.21-.4.21-1.97,0-3.94,0-5.91,0-.17,0-.34-.03-.37-.24-.03-.2.09-.31.26-.36.72-.22.77-.78.77-1.41,0-5.39-.01-10.77,0-16.16,0-.64-.07-1.19-.8-1.39-.13-.04-.23-.15-.23-.29.01-.21.18-.25.35-.25.23,0,.46,0,.69,0,2.27,0,4.53,0,6.8,0,.23,0,.46,0,.69.02.14,0,.25.07.28.22.02.15-.09.22-.19.32-.68.67-.71.74-.21,1.57,1.97,3.26,3.95,6.51,5.93,9.76.07.11.16.2.29.37.78-1.24,1.53-2.42,2.27-3.61,1.31-2.09,2.61-4.17,3.92-6.26.14-.22.28-.44.4-.68.29-.61.25-.74-.3-1.13-.15-.1-.42-.13-.31-.4.09-.23.33-.16.52-.17.39,0,.79,0,1.18,0,2,0,4.01,0,6.01,0,.2,0,.39,0,.59,0,.17,0,.34.05.36.25,0,.14-.1.25-.23.29-.82.23-.86.86-.86,1.56.01,5.29.01,10.57,0,15.86,0,.71.09,1.31.87,1.56.12.04.23.13.22.29-.02.2-.17.27-.34.28-.26.01-.52.01-.79.01-1.68,0-3.35,0-5.03,0-.23,0-.46,0-.69-.01-.14,0-.27-.07-.31-.19-.06-.19.05-.32.22-.37.67-.22.86-.71.85-1.38-.01-3.78,0-7.55,0-11.33,0-.09.03-.19-.19-.3-2.89,4.46-5.79,8.92-8.81,13.57" style="fill: #fff;"/>
          <path d="m242.46,102.51c0,4.17,0,8.08,0,11.98,0,.54.16.97.7,1.18.18.07.41.15.34.4-.08.29-.35.24-.57.24-1.12,0-2.23,0-3.35,0-.69,0-1.38,0-2.07,0-.2,0-.42.02-.51-.21-.09-.25.12-.35.3-.42.75-.28.73-.92.73-1.56,0-4.63,0-9.26,0-13.9,0-.72,0-1.45,0-2.17.01-.6-.11-1.11-.75-1.35-.19-.07-.38-.17-.28-.43.09-.22.32-.2.51-.2,1.54,0,3.09,0,4.63,0,.66,0,1.31,0,1.97,0,.16,0,.35,0,.41.19.06.18-.06.28-.19.4-.63.6-.64.78.01,1.41,1.59,1.52,3.2,3.02,4.81,4.53,2.28,2.13,4.56,4.26,6.84,6.39.14.13.29.25.45.38.29-.21.17-.5.17-.73,0-3.48,0-6.96.01-10.45,0-.66-.04-1.26-.78-1.52-.18-.07-.26-.21-.22-.39.05-.19.23-.21.4-.21,1.91,0,3.81,0,5.72,0,.17,0,.34.03.36.24.02.19-.09.3-.26.36-.66.22-.74.72-.74,1.33.01,5.45,0,10.91,0,16.36,0,.55.04,1.06.66,1.28.18.07.4.15.34.41-.08.32-.36.23-.57.23-1.94,0-3.88,0-5.81,0-.07,0-.13,0-.2,0-.17,0-.34-.05-.39-.23-.06-.19.11-.27.23-.38.53-.49.56-.59.08-1.1-.7-.73-1.46-1.42-2.21-2.11-3.17-2.96-6.34-5.91-9.52-8.87-.35-.33-.72-.65-1.25-1.12" style="fill: #fff;"/>
          <path d="m132.55,109.25c.18-.3.12-.57.12-.82,0-3.42,0-6.83.01-10.25,0-.66-.03-1.26-.8-1.5-.18-.06-.25-.21-.19-.39.07-.2.25-.18.41-.18.95,0,1.91,0,2.86,0s1.84,0,2.76,0c.17,0,.35.01.39.21.04.18-.04.32-.22.38-.7.24-.76.79-.76,1.43.01,5.35.01,10.71,0,16.06,0,.59.02,1.13.69,1.36.21.07.35.19.28.43-.06.21-.25.18-.4.18-.59,0-1.18,0-1.77,0-1.38,0-2.76,0-4.14,0-.18,0-.42.08-.52-.16-.1-.22.04-.35.23-.46.47-.28.39-.63.1-.99-.19-.23-.4-.44-.61-.64-3.84-3.58-7.69-7.17-11.54-10.75-.2-.19-.37-.46-.69-.47-.17.14-.1.32-.1.47,0,3.68,0,7.36,0,11.04,0,.61.11,1.11.74,1.35.16.06.31.15.29.34-.03.27-.25.26-.45.26-1.35,0-2.69,0-4.04,0-.53,0-1.05,0-1.58,0-.13,0-.27-.01-.32-.16-.06-.18,0-.33.17-.4.74-.26.8-.84.8-1.51-.01-5.32,0-10.64,0-15.96,0-.6-.06-1.12-.7-1.37-.19-.08-.36-.21-.28-.44.08-.23.31-.2.5-.2,1.87,0,3.75,0,5.62,0,.29,0,.59,0,.89,0,.16,0,.34,0,.41.18.07.18-.05.28-.18.4-.64.62-.66.77,0,1.4,1.54,1.48,3.1,2.93,4.66,4.39,2.15,2.02,4.31,4.05,6.47,6.07.26.24.48.53.89.69" style="fill: #fff;"/>
          <path d="m83.13,96.06c3.02,0,6.04,0,9.06,0,.68,0,1.33.01,1.66-.75.05-.13.18-.2.32-.18.21.03.23.21.23.37,0,1.48,0,2.95,0,4.43,0,.13,0,.27-.15.33-.19.08-.34,0-.41-.16-.31-.73-.92-.72-1.57-.72-4.14,0-8.28,0-12.41,0-.16,0-.33,0-.49,0-.37-.02-.54.13-.53.52.01,1.25.01,2.49,0,3.74,0,.4.2.5.55.5,2.82,0,5.65,0,8.47,0,.52,0,.86-.24,1.09-.7.08-.15.21-.27.4-.21.18.05.23.22.23.39,0,1.41,0,2.82,0,4.24,0,.17-.02.34-.22.38-.18.04-.33-.04-.4-.2-.3-.65-.85-.73-1.48-.72-2.59.01-5.19,0-7.78,0-.83,0-.84.01-.85.79,0,1.35-.01,2.69,0,4.04,0,.71.02.72.72.73,1.74.01,3.48,0,5.22,0,2.59,0,5.19,0,7.78,0,.66,0,1.34.07,1.67-.71.05-.13.2-.17.34-.14.21.04.22.21.22.38,0,1.44,0,2.89,0,4.33,0,.16,0,.34-.21.38-.18.04-.32-.05-.39-.22-.35-.76-1.03-.69-1.69-.69-6.14,0-12.28,0-18.42,0-.26,0-.52,0-.79-.01-.14,0-.26-.05-.29-.21-.02-.15.05-.28.18-.31.87-.26.86-.95.86-1.66,0-5.25,0-10.51,0-15.76,0-.73-.02-1.4-.87-1.66-.14-.04-.19-.19-.17-.32.02-.15.14-.21.28-.21.23,0,.46,0,.69,0h9.16" style="fill: #fff;"/>
          <path d="m167.61,116.21c-2.94.06-5.73-.61-8.43-1.71-.68-.28-1.33-.75-2.14-.33-.23.12-.45-.11-.34-.4.14-.37.34-.71.52-1.06.5-1,.99-2,1.49-3,.1-.19.15-.47.46-.43.25.03.26.26.3.45.19.74.76,1.13,1.37,1.47,1.28.71,2.68,1.09,4.09,1.36,1.95.38,3.92.43,5.85-.15.73-.22,1.41-.54,1.93-1.12.99-1.1.68-2.31-.72-2.74-.85-.26-1.74-.35-2.62-.45-1.99-.21-3.98-.4-5.97-.61-1.05-.11-2.06-.4-3.02-.85-3.81-1.77-3.65-6.35-1.46-8.42,1.53-1.45,3.39-2.07,5.41-2.36,3.46-.5,6.8,0,10.06,1.19.49.18.99.36,1.48.53.53.18,1.05.41,1.6.04.15-.1.32-.06.44.08.1.11.05.25-.01.37-.76,1.34-1.52,2.68-2.31,4.01-.21.36-.46.33-.6-.1-.18-.56-.58-.86-1.04-1.13-3.01-1.74-6.22-2.17-9.6-1.46-.75.16-1.43.47-1.96,1.06-.81.91-.57,2,.55,2.47.61.26,1.27.34,1.92.41,1.99.21,3.98.39,5.97.6,1.34.15,2.65.44,3.89,1,3.98,1.79,4.49,6.69.97,9.27-1.42,1.04-3.08,1.43-4.76,1.75-1.1.21-2.22.25-3.33.24" style="fill: #fff;"/>
          <path d="m220.25,115.69c-1.08-.28-1.5-1.2-1.98-2.06-1.61-2.9-3.21-5.8-4.81-8.71-1.19-2.16-2.39-4.31-3.56-6.47-.54-1-.49-1.18.33-1.79.14-.11.28-.19.22-.38-.06-.2-.25-.18-.41-.18-2.33,0-4.66,0-7,0-.16,0-.35-.02-.41.17-.06.18.05.3.21.39.94.53.74,1.04.43,1.73-.26.57-.57,1.11-.87,1.66-2.5,4.69-5,9.38-7.51,14.07-.34.64-.66,1.3-1.45,1.51-.16.04-.32.14-.27.34.05.21.25.17.4.17,2.14,0,4.27,0,6.41,0,.18,0,.43.05.46-.23.02-.19-.16-.25-.3-.34-.79-.49-.87-.68-.49-1.5.39-.83.88-1.61,1.26-2.45.23-.5.56-.64,1.08-.62,1.44.03,2.89.01,4.34.01s2.96,0,4.43,0c.38,0,.69.02.9.43.46.91.98,1.78,1.43,2.7.36.73.25,1.01-.45,1.45-.16.1-.41.14-.32.4.08.24.33.16.51.16,1.64,0,3.29,0,4.93,0,.79,0,1.58,0,2.36,0,.13,0,.27,0,.32-.17.04-.15-.06-.27-.18-.3m-17.5-7.46c1.21-2.36,2.38-4.64,3.64-7.09,1.24,2.46,2.38,4.73,3.57,7.09h-7.22Z" style="fill: #fff;"/>
          <path d="m306.4,115.6c-.92-.24-1.35-.99-1.77-1.74-1.17-2.13-2.35-4.25-3.52-6.38-1.63-2.96-3.27-5.92-4.89-8.89-.55-1.01-.52-1.08.39-1.84.1-.09.2-.17.15-.32-.08-.2-.27-.16-.42-.16-2.3,0-4.6,0-6.9,0-.15,0-.35-.06-.42.15-.08.25.14.32.29.44.65.52.71.73.4,1.51-.07.18-.16.36-.25.53-2.72,5.1-5.45,10.19-8.17,15.29-.33.62-.69,1.2-1.43,1.4-.13.03-.25.11-.24.27.01.21.19.25.35.25.49,0,.99,0,1.48,0,1.64,0,3.29,0,4.93,0,.2,0,.44.02.5-.21.06-.25-.21-.28-.37-.38-.77-.47-.85-.73-.4-1.62.4-.79.86-1.55,1.24-2.35.22-.46.53-.59,1.01-.58,1.41.02,2.83,0,4.24,0s2.96.01,4.44,0c.44,0,.74.1.95.52.4.79.86,1.55,1.26,2.34.53,1.02.49,1.13-.51,1.77-.12.08-.23.17-.19.3.03.13.17.19.31.19.13,0,.26,0,.39,0h6.6c.16,0,.33,0,.49-.02.13-.01.26-.07.29-.21.03-.15-.08-.24-.21-.28m-17.27-7.38c1.18-2.3,2.33-4.55,3.58-6.98,1.23,2.42,2.36,4.65,3.54,6.98h-7.12Z" style="fill: #fff;"/>
        </g>
      </g>
    </g>
  </g>
</svg>