<svg width="956" height="672" viewBox="0 0 956 672" fill="none" xmlns="http://www.w3.org/2000/svg">
<path d="M833 219V221.961H123V219H833Z" fill="#0284BE"/>
<path d="M833 557.961V555H927C943.016 555 956 574.22 956 597.93V672H954V597.93C954 575.856 941.912 557.961 927 557.961H833Z" fill="#0284BE"/>
<path d="M954 0H956V179.07C956 202.78 943.016 222 927 222H833V219.039H927C941.912 219.039 954 201.144 954 179.07V0Z" fill="#0284BE"/>
<path d="M123 555V557.961H833V555H123Z" fill="#0284BE"/>
<path d="M123 219H29C12.9837 219 0 238.22 0 261.93V515.07C0 538.779 12.9837 558 29 558H123V555.039H29C14.0883 555.039 2 537.144 2 515.07V261.93C2 239.856 14.0883 221.961 29 221.961H123V219Z" fill="#0284BE"/>
</svg>
